# xmcd
#
# Track frame offsets:
#	150
#	15488
#	28548
#	42041
#	56637
#
# Disc length: 962 seconds
#
# Revision: 1
# Processed by: cddbd v1.5.2PL0 Copyright (c) Steve Scherf et al.
# Submitted via: audiograbber 1.83.01
#
DISCID=3103c005
DTITLE=Ben Shaham - BEN SHAHAM
DYEAR=2010
DGENRE=Indie
TTITLE0=Rivers of mud
TTITLE1=In times of madness
TTITLE2=Will she hear them
TTITLE3=Like he never did
TTITLE4=That man
EXTD=
EXTT0=
EXTT1=
EXTT2=
EXTT3=
EXTT4=
PLAYORDER=
